<mxfile host="app.diagrams.net" modified="2021-05-12T14:19:15.891Z" agent="5.0 (Windows)" etag="17zYfXVBCmxcMbNXWfoa" version="14.6.12" type="github">
  <diagram id="R2lEEEUBdFMjLlhIrx00" name="Page-1">
    <mxGraphModel dx="1840" dy="746" grid="1" gridSize="10" guides="1" tooltips="1" connect="1" arrows="1" fold="1" page="0" pageScale="1" pageWidth="850" pageHeight="1100" math="0" shadow="0" extFonts="Permanent Marker^https://fonts.googleapis.com/css?family=Permanent+Marker">
      <root>
        <mxCell id="0" />
        <mxCell id="1" parent="0" />
        <mxCell id="IVEwMj53d4A4saREuFa4-1" value="USER" style="rounded=1;arcSize=10;whiteSpace=wrap;html=1;align=center;" vertex="1" parent="1">
          <mxGeometry x="190" y="360" width="130" height="40" as="geometry" />
        </mxCell>
        <mxCell id="IVEwMj53d4A4saREuFa4-2" value="CLASS" style="rounded=1;arcSize=10;whiteSpace=wrap;html=1;align=center;" vertex="1" parent="1">
          <mxGeometry x="620" y="360" width="100" height="40" as="geometry" />
        </mxCell>
        <mxCell id="IVEwMj53d4A4saREuFa4-3" value="CLASS_U" style="rounded=1;arcSize=10;whiteSpace=wrap;html=1;align=center;" vertex="1" parent="1">
          <mxGeometry x="-250" y="360" width="100" height="40" as="geometry" />
        </mxCell>
        <mxCell id="IVEwMj53d4A4saREuFa4-4" value="QUESTION_U" style="rounded=1;arcSize=10;whiteSpace=wrap;html=1;align=center;" vertex="1" parent="1">
          <mxGeometry x="-250" y="590" width="100" height="40" as="geometry" />
        </mxCell>
        <mxCell id="IVEwMj53d4A4saREuFa4-7" value="ANSWER_U" style="rounded=1;arcSize=10;whiteSpace=wrap;html=1;align=center;" vertex="1" parent="1">
          <mxGeometry x="-250" y="820" width="100" height="40" as="geometry" />
        </mxCell>
        <mxCell id="IVEwMj53d4A4saREuFa4-9" value="ANSWER" style="rounded=1;arcSize=10;whiteSpace=wrap;html=1;align=center;" vertex="1" parent="1">
          <mxGeometry x="620" y="820" width="100" height="40" as="geometry" />
        </mxCell>
        <mxCell id="IVEwMj53d4A4saREuFa4-10" value="QUESTION" style="rounded=1;arcSize=10;whiteSpace=wrap;html=1;align=center;" vertex="1" parent="1">
          <mxGeometry x="620" y="590" width="100" height="40" as="geometry" />
        </mxCell>
        <mxCell id="IVEwMj53d4A4saREuFa4-11" value="add" style="shape=rhombus;perimeter=rhombusPerimeter;whiteSpace=wrap;html=1;align=center;" vertex="1" parent="1">
          <mxGeometry x="148" y="580" width="123" height="60" as="geometry" />
        </mxCell>
        <mxCell id="IVEwMj53d4A4saREuFa4-12" value="enroll" style="shape=rhombus;perimeter=rhombusPerimeter;whiteSpace=wrap;html=1;align=center;" vertex="1" parent="1">
          <mxGeometry x="410" y="350" width="120" height="60" as="geometry" />
        </mxCell>
        <mxCell id="IVEwMj53d4A4saREuFa4-13" value="have" style="shape=rhombus;perimeter=rhombusPerimeter;whiteSpace=wrap;html=1;align=center;" vertex="1" parent="1">
          <mxGeometry x="-260" y="700" width="120" height="60" as="geometry" />
        </mxCell>
        <mxCell id="IVEwMj53d4A4saREuFa4-14" value="have" style="shape=rhombus;perimeter=rhombusPerimeter;whiteSpace=wrap;html=1;align=center;" vertex="1" parent="1">
          <mxGeometry x="610" y="460" width="120" height="60" as="geometry" />
        </mxCell>
        <mxCell id="IVEwMj53d4A4saREuFa4-15" value="have" style="shape=rhombus;perimeter=rhombusPerimeter;whiteSpace=wrap;html=1;align=center;" vertex="1" parent="1">
          <mxGeometry x="-260" y="460" width="120" height="60" as="geometry" />
        </mxCell>
        <mxCell id="IVEwMj53d4A4saREuFa4-16" value="have" style="shape=rhombus;perimeter=rhombusPerimeter;whiteSpace=wrap;html=1;align=center;" vertex="1" parent="1">
          <mxGeometry x="610" y="700" width="120" height="60" as="geometry" />
        </mxCell>
        <mxCell id="IVEwMj53d4A4saREuFa4-17" value="create" style="shape=rhombus;perimeter=rhombusPerimeter;whiteSpace=wrap;html=1;align=center;" vertex="1" parent="1">
          <mxGeometry x="-20" y="350" width="120" height="60" as="geometry" />
        </mxCell>
        <mxCell id="IVEwMj53d4A4saREuFa4-18" value="reply" style="shape=rhombus;perimeter=rhombusPerimeter;whiteSpace=wrap;html=1;align=center;" vertex="1" parent="1">
          <mxGeometry x="240" y="810" width="120" height="60" as="geometry" />
        </mxCell>
        <mxCell id="IVEwMj53d4A4saREuFa4-20" value="" style="endArrow=none;html=1;rounded=0;entryX=0;entryY=0.5;entryDx=0;entryDy=0;exitX=1;exitY=0.5;exitDx=0;exitDy=0;" edge="1" parent="1" source="IVEwMj53d4A4saREuFa4-17" target="IVEwMj53d4A4saREuFa4-1">
          <mxGeometry relative="1" as="geometry">
            <mxPoint x="50" y="450" as="sourcePoint" />
            <mxPoint x="210" y="450" as="targetPoint" />
          </mxGeometry>
        </mxCell>
        <mxCell id="IVEwMj53d4A4saREuFa4-21" value="" style="endArrow=none;html=1;rounded=0;entryX=0;entryY=0.5;entryDx=0;entryDy=0;exitX=1;exitY=0.5;exitDx=0;exitDy=0;shape=link;" edge="1" parent="1" source="IVEwMj53d4A4saREuFa4-12" target="IVEwMj53d4A4saREuFa4-2">
          <mxGeometry relative="1" as="geometry">
            <mxPoint x="480" y="440" as="sourcePoint" />
            <mxPoint x="580" y="440" as="targetPoint" />
          </mxGeometry>
        </mxCell>
        <mxCell id="IVEwMj53d4A4saREuFa4-22" value="" style="endArrow=none;html=1;rounded=0;entryX=0.5;entryY=0;entryDx=0;entryDy=0;exitX=0.5;exitY=1;exitDx=0;exitDy=0;" edge="1" parent="1" source="IVEwMj53d4A4saREuFa4-3" target="IVEwMj53d4A4saREuFa4-15">
          <mxGeometry relative="1" as="geometry">
            <mxPoint x="-220" y="430" as="sourcePoint" />
            <mxPoint x="-120" y="430" as="targetPoint" />
          </mxGeometry>
        </mxCell>
        <mxCell id="IVEwMj53d4A4saREuFa4-23" value="" style="endArrow=none;html=1;rounded=0;entryX=0.5;entryY=0;entryDx=0;entryDy=0;exitX=0.5;exitY=1;exitDx=0;exitDy=0;shape=link;" edge="1" parent="1" source="IVEwMj53d4A4saREuFa4-15" target="IVEwMj53d4A4saREuFa4-4">
          <mxGeometry relative="1" as="geometry">
            <mxPoint x="-190" y="530" as="sourcePoint" />
            <mxPoint x="-90" y="530" as="targetPoint" />
          </mxGeometry>
        </mxCell>
        <mxCell id="IVEwMj53d4A4saREuFa4-24" value="" style="endArrow=none;html=1;rounded=0;entryX=0;entryY=0.5;entryDx=0;entryDy=0;exitX=1;exitY=0.5;exitDx=0;exitDy=0;shape=link;" edge="1" parent="1" source="IVEwMj53d4A4saREuFa4-3" target="IVEwMj53d4A4saREuFa4-17">
          <mxGeometry relative="1" as="geometry">
            <mxPoint x="-140" y="380" as="sourcePoint" />
            <mxPoint x="-30" y="379.5" as="targetPoint" />
          </mxGeometry>
        </mxCell>
        <mxCell id="IVEwMj53d4A4saREuFa4-25" value="" style="endArrow=none;html=1;rounded=0;entryX=0;entryY=0.5;entryDx=0;entryDy=0;exitX=1;exitY=0.5;exitDx=0;exitDy=0;" edge="1" parent="1" source="IVEwMj53d4A4saREuFa4-1" target="IVEwMj53d4A4saREuFa4-12">
          <mxGeometry relative="1" as="geometry">
            <mxPoint x="310" y="390" as="sourcePoint" />
            <mxPoint x="410" y="390" as="targetPoint" />
          </mxGeometry>
        </mxCell>
        <mxCell id="IVEwMj53d4A4saREuFa4-26" value="" style="endArrow=none;html=1;rounded=0;entryX=0.5;entryY=1;entryDx=0;entryDy=0;exitX=0.5;exitY=0;exitDx=0;exitDy=0;" edge="1" parent="1" source="IVEwMj53d4A4saREuFa4-14" target="IVEwMj53d4A4saREuFa4-2">
          <mxGeometry relative="1" as="geometry">
            <mxPoint x="550" y="420" as="sourcePoint" />
            <mxPoint x="640" y="420" as="targetPoint" />
          </mxGeometry>
        </mxCell>
        <mxCell id="IVEwMj53d4A4saREuFa4-27" value="" style="endArrow=none;html=1;rounded=0;entryX=0.5;entryY=1;entryDx=0;entryDy=0;exitX=0.5;exitY=0;exitDx=0;exitDy=0;shape=link;" edge="1" parent="1" source="IVEwMj53d4A4saREuFa4-10" target="IVEwMj53d4A4saREuFa4-14">
          <mxGeometry relative="1" as="geometry">
            <mxPoint x="570" y="550" as="sourcePoint" />
            <mxPoint x="660" y="550" as="targetPoint" />
          </mxGeometry>
        </mxCell>
        <mxCell id="IVEwMj53d4A4saREuFa4-28" value="" style="endArrow=none;html=1;rounded=0;entryX=0.5;entryY=1;entryDx=0;entryDy=0;exitX=0.5;exitY=0;exitDx=0;exitDy=0;" edge="1" parent="1" source="IVEwMj53d4A4saREuFa4-16" target="IVEwMj53d4A4saREuFa4-10">
          <mxGeometry relative="1" as="geometry">
            <mxPoint x="550" y="649.5" as="sourcePoint" />
            <mxPoint x="640" y="649.5" as="targetPoint" />
          </mxGeometry>
        </mxCell>
        <mxCell id="IVEwMj53d4A4saREuFa4-29" value="" style="endArrow=none;html=1;rounded=0;entryX=0.5;entryY=0;entryDx=0;entryDy=0;exitX=0.5;exitY=1;exitDx=0;exitDy=0;" edge="1" parent="1" source="IVEwMj53d4A4saREuFa4-4" target="IVEwMj53d4A4saREuFa4-13">
          <mxGeometry relative="1" as="geometry">
            <mxPoint x="-190" y="660" as="sourcePoint" />
            <mxPoint x="-100" y="660" as="targetPoint" />
          </mxGeometry>
        </mxCell>
        <mxCell id="IVEwMj53d4A4saREuFa4-30" value="" style="endArrow=none;html=1;rounded=0;entryX=0.5;entryY=0;entryDx=0;entryDy=0;" edge="1" parent="1" target="IVEwMj53d4A4saREuFa4-11">
          <mxGeometry relative="1" as="geometry">
            <mxPoint x="210" y="401" as="sourcePoint" />
            <mxPoint x="320" y="510" as="targetPoint" />
          </mxGeometry>
        </mxCell>
        <mxCell id="IVEwMj53d4A4saREuFa4-31" value="" style="endArrow=none;html=1;rounded=0;entryX=0.5;entryY=0;entryDx=0;entryDy=0;exitX=0.5;exitY=1;exitDx=0;exitDy=0;shape=link;" edge="1" parent="1" source="IVEwMj53d4A4saREuFa4-13" target="IVEwMj53d4A4saREuFa4-7">
          <mxGeometry relative="1" as="geometry">
            <mxPoint x="-100" y="790" as="sourcePoint" />
            <mxPoint x="-10" y="790" as="targetPoint" />
          </mxGeometry>
        </mxCell>
        <mxCell id="IVEwMj53d4A4saREuFa4-32" value="" style="endArrow=none;html=1;rounded=0;entryX=0;entryY=0.5;entryDx=0;entryDy=0;exitX=1;exitY=0.5;exitDx=0;exitDy=0;shape=link;" edge="1" parent="1" source="IVEwMj53d4A4saREuFa4-4" target="IVEwMj53d4A4saREuFa4-11">
          <mxGeometry relative="1" as="geometry">
            <mxPoint x="-60" y="609" as="sourcePoint" />
            <mxPoint x="30" y="609" as="targetPoint" />
          </mxGeometry>
        </mxCell>
        <mxCell id="IVEwMj53d4A4saREuFa4-33" value="" style="endArrow=none;html=1;rounded=0;entryX=0.5;entryY=1;entryDx=0;entryDy=0;exitX=0.5;exitY=0;exitDx=0;exitDy=0;shape=link;" edge="1" parent="1" source="IVEwMj53d4A4saREuFa4-9" target="IVEwMj53d4A4saREuFa4-16">
          <mxGeometry relative="1" as="geometry">
            <mxPoint x="500" y="720" as="sourcePoint" />
            <mxPoint x="590" y="720" as="targetPoint" />
          </mxGeometry>
        </mxCell>
        <mxCell id="IVEwMj53d4A4saREuFa4-34" value="" style="endArrow=none;html=1;rounded=0;exitX=0.848;exitY=1.01;exitDx=0;exitDy=0;jumpStyle=none;exitPerimeter=0;entryX=0.5;entryY=0;entryDx=0;entryDy=0;" edge="1" parent="1" source="IVEwMj53d4A4saREuFa4-1" target="IVEwMj53d4A4saREuFa4-18">
          <mxGeometry relative="1" as="geometry">
            <mxPoint x="260" y="480" as="sourcePoint" />
            <mxPoint x="300" y="760" as="targetPoint" />
          </mxGeometry>
        </mxCell>
        <mxCell id="IVEwMj53d4A4saREuFa4-36" value="" style="endArrow=none;html=1;rounded=0;entryX=0;entryY=0.5;entryDx=0;entryDy=0;exitX=1;exitY=0.5;exitDx=0;exitDy=0;shape=link;" edge="1" parent="1" source="IVEwMj53d4A4saREuFa4-18" target="IVEwMj53d4A4saREuFa4-9">
          <mxGeometry relative="1" as="geometry">
            <mxPoint x="430" y="850" as="sourcePoint" />
            <mxPoint x="590" y="850" as="targetPoint" />
          </mxGeometry>
        </mxCell>
        <mxCell id="IVEwMj53d4A4saREuFa4-37" value="&lt;div&gt;user_email&lt;/div&gt;" style="ellipse;whiteSpace=wrap;html=1;align=center;fontStyle=4;" vertex="1" parent="1">
          <mxGeometry x="90" y="300" width="100" height="40" as="geometry" />
        </mxCell>
        <mxCell id="IVEwMj53d4A4saREuFa4-38" value="user_name" style="ellipse;whiteSpace=wrap;html=1;align=center;" vertex="1" parent="1">
          <mxGeometry x="200" y="260" width="100" height="40" as="geometry" />
        </mxCell>
        <mxCell id="IVEwMj53d4A4saREuFa4-39" value="user_password" style="ellipse;whiteSpace=wrap;html=1;align=center;" vertex="1" parent="1">
          <mxGeometry x="310" y="270" width="100" height="40" as="geometry" />
        </mxCell>
        <mxCell id="IVEwMj53d4A4saREuFa4-40" value="first_name" style="ellipse;whiteSpace=wrap;html=1;align=center;" vertex="1" parent="1">
          <mxGeometry x="100" y="190" width="100" height="40" as="geometry" />
        </mxCell>
        <mxCell id="IVEwMj53d4A4saREuFa4-41" value="last_name" style="ellipse;whiteSpace=wrap;html=1;align=center;" vertex="1" parent="1">
          <mxGeometry x="220" y="180" width="100" height="40" as="geometry" />
        </mxCell>
        <mxCell id="IVEwMj53d4A4saREuFa4-43" value="" style="endArrow=none;html=1;entryX=0.5;entryY=1;entryDx=0;entryDy=0;exitX=0.537;exitY=-0.025;exitDx=0;exitDy=0;exitPerimeter=0;" edge="1" parent="1" source="IVEwMj53d4A4saREuFa4-1" target="IVEwMj53d4A4saREuFa4-38">
          <mxGeometry width="50" height="50" relative="1" as="geometry">
            <mxPoint x="230" y="360" as="sourcePoint" />
            <mxPoint x="280" y="310" as="targetPoint" />
          </mxGeometry>
        </mxCell>
        <mxCell id="IVEwMj53d4A4saREuFa4-44" value="" style="endArrow=none;html=1;entryX=0.365;entryY=0.987;entryDx=0;entryDy=0;exitX=0.783;exitY=-0.013;exitDx=0;exitDy=0;exitPerimeter=0;entryPerimeter=0;" edge="1" parent="1" source="IVEwMj53d4A4saREuFa4-1" target="IVEwMj53d4A4saREuFa4-39">
          <mxGeometry width="50" height="50" relative="1" as="geometry">
            <mxPoint x="339.8100000000002" y="389.0000000000001" as="sourcePoint" />
            <mxPoint x="320" y="320" as="targetPoint" />
          </mxGeometry>
        </mxCell>
        <mxCell id="IVEwMj53d4A4saREuFa4-45" value="" style="endArrow=none;html=1;entryX=0.78;entryY=0.939;entryDx=0;entryDy=0;exitX=0;exitY=0;exitDx=0;exitDy=0;entryPerimeter=0;" edge="1" parent="1" source="IVEwMj53d4A4saREuFa4-38" target="IVEwMj53d4A4saREuFa4-40">
          <mxGeometry width="50" height="50" relative="1" as="geometry">
            <mxPoint x="167.81000000000017" y="329.0000000000001" as="sourcePoint" />
            <mxPoint x="148" y="260" as="targetPoint" />
          </mxGeometry>
        </mxCell>
        <mxCell id="IVEwMj53d4A4saREuFa4-46" value="" style="endArrow=none;html=1;exitX=0.5;exitY=0;exitDx=0;exitDy=0;" edge="1" parent="1" source="IVEwMj53d4A4saREuFa4-38" target="IVEwMj53d4A4saREuFa4-41">
          <mxGeometry width="50" height="50" relative="1" as="geometry">
            <mxPoint x="419.8100000000002" y="260.0000000000001" as="sourcePoint" />
            <mxPoint x="400" y="191" as="targetPoint" />
          </mxGeometry>
        </mxCell>
        <mxCell id="IVEwMj53d4A4saREuFa4-47" value="" style="endArrow=none;html=1;entryX=1;entryY=1;entryDx=0;entryDy=0;exitX=0.154;exitY=0;exitDx=0;exitDy=0;exitPerimeter=0;" edge="1" parent="1" source="IVEwMj53d4A4saREuFa4-1" target="IVEwMj53d4A4saREuFa4-37">
          <mxGeometry width="50" height="50" relative="1" as="geometry">
            <mxPoint x="240.00000000000017" y="409.0000000000001" as="sourcePoint" />
            <mxPoint x="220.19" y="340" as="targetPoint" />
          </mxGeometry>
        </mxCell>
      </root>
    </mxGraphModel>
  </diagram>
</mxfile>
